<?xml version="1.0" encoding="UTF-8"?>
<svg width="40px" height="40px" viewBox="0 0 40 40" version="1.1" xmlns="http://www.w3.org/2000/svg" xmlns:xlink="http://www.w3.org/1999/xlink">
    <!-- Generator: Sketch 54.1 (76490) - https://sketchapp.com -->
    <title>icon/信息</title>
    <desc>Created with Sketch.</desc>
    <g id="icon/信息" stroke="none" stroke-width="1" fill="none" fill-rule="evenodd">
        <g>
            <rect id="矩形" fill="#F5F5F5" x="0" y="0" width="40" height="40"></rect>
            <g id="xinxi" transform="translate(1.000000, 4.000000)" fill="#0678DD" fill-rule="nonzero">
                <path d="M19.4999726,0 C8.74833838,0 0,6.82355929 0,15.2094076 C0,19.1069908 1.91001237,22.8230514 5.37770578,25.6700351 C5.93943226,26.1309667 6.18889992,26.8610597 6.01946775,27.5587017 L4.70742228,33 L12.7587622,29.8599437 C12.9887685,29.7696187 13.2344575,29.7233021 13.4824209,29.7235216 C13.6337876,29.7235216 13.7861944,29.7411348 13.9356451,29.7755072 C15.7695088,30.2026001 17.6414195,30.4188686 19.5000274,30.4188686 C30.252647,30.4188686 39,23.595843 39,15.2094076 C38.9999453,6.82350591 30.2525923,0 19.4999726,0 Z M9.74998631,18.0611949 C8.13520744,18.0611949 6.82502327,16.7847197 6.82502327,15.2094076 C6.82502327,13.6354832 8.13526219,12.3576737 9.74998631,12.3576737 C11.3648747,12.3576737 12.6750589,13.6354298 12.6750589,15.2094076 C12.6750589,16.7847731 11.3648747,18.0611949 9.74998631,18.0611949 L9.74998631,18.0611949 Z M19.4999726,18.0611949 C17.885139,18.0611949 16.5749548,16.7847197 16.5749548,15.2094076 C16.5749548,13.6354832 17.885139,12.3576737 19.4999726,12.3576737 C21.1148062,12.3576737 22.4249904,13.6354298 22.4249904,15.2094076 C22.4249904,16.7847731 21.1148062,18.0611949 19.4999726,18.0611949 Z M29.2499589,18.0611949 C27.6350706,18.0611949 26.3249959,16.7847197 26.3249959,15.2094076 C26.3249959,13.6354832 27.6351253,12.3576737 29.2499589,12.3576737 C30.8647378,12.3576737 32.1750315,13.6354298 32.1750862,15.2094076 C32.1750315,16.7847731 30.8647378,18.0611949 29.2499589,18.0611949 Z" id="形状"></path>
            </g>
        </g>
    </g>
</svg>