<?xml version="1.0" encoding="UTF-8"?>
<svg width="40px" height="40px" viewBox="0 0 40 40" version="1.1" xmlns="http://www.w3.org/2000/svg" xmlns:xlink="http://www.w3.org/1999/xlink">
    <!-- Generator: Sketch 54.1 (76490) - https://sketchapp.com -->
    <title>icon/相机</title>
    <desc>Created with Sketch.</desc>
    <g id="icon/相机" stroke="none" stroke-width="1" fill="none" fill-rule="evenodd">
        <g>
            <rect id="矩形" fill="#F5F5F5" x="0" y="0" width="40" height="40"></rect>
            <path d="M37.6598829,35 L3.33993835,35 C2.04732949,35 1,33.9391046 1,32.6314769 L1,12.1050344 C1,10.7978079 2.04732949,9.7369125 3.33993835,9.7369125 L10.3599768,9.7369125 C12.7000044,9.7369125 13.4800286,5 15.0399428,5 L25.1799437,5 C27.4994198,5 28.3860443,9.7369125 30.6406934,9.7369125 L37.6599723,9.7369125 C38.9518663,9.7369125 40,10.7978079 40,12.1050344 L40,32.6316106 C39.9999106,33.9391492 38.951777,35 37.6598829,35 Z M20.499933,12.1050344 C15.3308826,12.1050344 11.140671,16.3465651 11.140671,21.5784135 C11.140671,26.8123128 15.3308826,31.0542003 20.499933,31.0542003 C25.6696982,31.0542003 29.8599097,26.8121791 29.8599097,21.5784135 C29.8599097,16.3465651 25.6696982,12.1050344 20.499933,12.1050344 L20.499933,12.1050344 Z M31.8099477,12.1050344 C31.1640007,12.1050344 30.6406487,12.6350585 30.6406487,13.2899647 C30.6406487,13.9438008 31.1639113,14.4734683 31.8099477,14.4734683 C32.4558054,14.4734683 32.9806764,13.9438455 32.9806764,13.2899647 C32.9806764,12.6349694 32.4558054,12.1050344 31.8099477,12.1050344 Z M20.499933,28.6855434 C16.6227766,28.6855434 13.4798945,25.5030354 13.4798945,21.5784135 C13.4798945,17.6552183 16.6227766,14.4733791 20.499933,14.4733791 C24.3762852,14.4733791 27.519882,17.6552183 27.5198821,21.5784135 C27.5198821,25.5030354 24.3762852,28.6855434 20.499933,28.6855434 L20.499933,28.6855434 Z M4.8999419,7.36843396 C4.8999419,6.93243918 5.24958785,6.57861417 5.6798767,6.57861417 L8.01990438,6.57861417 C8.45104207,6.57861417 8.80064336,6.93243918 8.80064336,7.36843396 L8.80064336,8.15834294 L4.8999419,8.15834294 L4.8999419,7.36843396 Z" id="形状" fill="#0678DD" fill-rule="nonzero"></path>
        </g>
    </g>
</svg>