<?xml version="1.0" encoding="UTF-8"?>
<svg width="40px" height="40px" viewBox="0 0 40 40" version="1.1" xmlns="http://www.w3.org/2000/svg" xmlns:xlink="http://www.w3.org/1999/xlink">
    <!-- Generator: Sketch 54.1 (76490) - https://sketchapp.com -->
    <title>icon/笑脸</title>
    <desc>Created with Sketch.</desc>
    <g id="icon/笑脸" stroke="none" stroke-width="1" fill="none" fill-rule="evenodd">
        <g>
            <rect id="矩形" fill="#F5F5F5" x="0" y="0" width="40" height="40"></rect>
            <path d="M20.5,0 C9.72744968,0 1,8.72875838 1,19.5 C1,30.2712416 9.72875838,39 20.5,39 C31.2712417,39 40,30.2712416 40,19.5 C40,8.72875835 31.2725503,0 20.5,0 Z M11.3995638,13 C12.8355041,13 13.9995638,14.1640596 13.9995638,15.6 C13.9995638,17.0359403 12.8355041,18.2 11.3995638,18.2 C9.96362341,18.2 8.79956375,17.0359403 8.79956375,15.6 C8.79921611,14.9104108 9.07306013,14.2489782 9.56075522,13.7614468 C10.0484503,13.2739154 10.7099747,13.0002934 11.3995638,13.0008725 L11.3995638,13 Z M31.040906,24.5560403 C29.1532886,28.4848322 25.1490268,31.2021812 20.5,31.2021812 C15.8509732,31.2021811 11.8545638,28.4822148 9.9669463,24.5586577 C9.5672253,24.1673185 9.44432331,23.5728805 9.65608404,23.0551155 C9.86784478,22.5373504 10.3720819,22.199406 10.9314765,22.2003356 C11.5945638,22.2003356 12.1224161,22.6802013 12.2524161,23.3027181 C13.6955034,26.4266443 16.8364429,28.6017449 20.5,28.6017449 C24.1740269,28.6017449 27.3254363,26.4174832 28.7632886,23.2817785 C28.8985235,22.6601342 29.4263758,22.1820134 30.0894631,22.1820134 C30.6533518,22.1802032 31.1612644,22.5226433 31.3710366,23.0460641 C31.5808089,23.5694849 31.4499717,24.1679179 31.040906,24.5560403 L31.040906,24.5560403 Z M29.6013087,18.2013087 C28.1653684,18.2013087 27.0013087,17.0372491 27.0013087,15.6013087 C27.0013087,14.1653683 28.1653684,13.0013087 29.6013087,13.0013087 C31.0372491,13.0013087 32.2013087,14.1653683 32.2013087,15.6013087 C32.2018885,16.2912004 31.928027,16.9529897 31.440118,17.4407351 C30.9522089,17.9284805 30.2903277,18.2021199 29.6004362,18.2013087 L29.6013087,18.2013087 Z" id="形状" fill="#0678DD" fill-rule="nonzero"></path>
        </g>
    </g>
</svg>